<?xml version="1.0" encoding="UTF-8" standalone="no"?>
<!DOCTYPE svg PUBLIC "-//W3C//DTD SVG 1.1//EN" "http://www.w3.org/Graphics/SVG/1.1/DTD/svg11.dtd">
<svg width="100%" height="100%" viewBox="0 0 1080 1080" version="1.1" xmlns="http://www.w3.org/2000/svg" xmlns:xlink="http://www.w3.org/1999/xlink" xml:space="preserve" xmlns:serif="http://www.serif.com/" style="fill-rule:evenodd;clip-rule:evenodd;stroke-linejoin:round;stroke-miterlimit:2;">
    <g transform="matrix(1,0,0,1,32.413,1)">
        <g id="Layer2">
            <path d="M221.975,156.975L91.975,26.975L91.975,26.975L539.975,26.975L604.975,91.975L603.975,859.975C603.975,859.975 469.806,1049.39 348.551,1052.97L283.975,1052.97C142.038,1052.97 26.975,937.912 26.975,795.975C26.975,795.975 85.391,795.975 123.906,795.975L160.308,825.004C173.437,881.155 223.823,922.975 283.975,922.975L348.551,922.975C412.874,922.975 474.975,861.324 474.975,796.551L474.975,156.975L221.975,156.975Z" style="fill:rgb(64,35,54);"/>
        </g>
    </g>
    <g id="Layer3">
        <g transform="matrix(1,0,0,1,32.413,1)">
            <path d="M678.8,785.151C676.986,786.964 674.259,787.507 671.889,786.525C669.52,785.544 667.975,783.232 667.975,780.667L667.975,170.476C667.975,167.91 669.522,165.597 671.893,164.616C674.265,163.636 676.993,164.181 678.805,165.998C734.703,222.042 987.975,475.975 987.975,475.975C987.975,475.975 734.686,729.265 678.8,785.151Z" style="fill:rgb(58,58,58);"/>
        </g>
        <g transform="matrix(1,0,0,1,32.413,1)">
            <path d="M656.061,158.47C656.782,159.194 657.187,160.173 657.187,161.195L657.187,789.909C657.187,790.932 656.781,791.913 656.057,792.637L621.395,827.299C620.291,828.403 618.63,828.733 617.188,828.134C615.746,827.536 614.807,826.127 614.809,824.566L615.717,127.348C615.719,125.787 616.661,124.381 618.103,123.786C619.546,123.191 621.205,123.523 622.307,124.628L656.061,158.47Z" style="fill:rgb(111,111,111);"/>
        </g>
    </g>
    <g id="Layer4">
    </g>
</svg>
